Coordinates
version=1
nRows=8
nColumns=40
inDegrees=yes

Units are S.I. units (second, meters, Newtons, ...)
Angles are in degrees.

endheader
time	pelvis_tilt	pelvis_list	pelvis_rotation	pelvis_tx	pelvis_ty	pelvis_tz	hip_flexion_r	hip_adduction_r	hip_rotation_r	knee_angle_r	knee_angle_r_beta	ankle_angle_r	subtalar_angle_r	mtp_angle_r	hip_flexion_l	hip_adduction_l	hip_rotation_l	knee_angle_l	knee_angle_l_beta	ankle_angle_l	subtalar_angle_l	mtp_angle_l	lumbar_extension	lumbar_bending	lumbar_rotation	arm_flex_r	arm_add_r	arm_rot_r	elbow_flex_r	pro_sup_r	wrist_flex_r	wrist_dev_r	arm_flex_l	arm_add_l	arm_rot_l	elbow_flex_l	pro_sup_l	wrist_flex_l	wrist_dev_l
      6.34000000	     -0.57750114	     -4.02183899	     -3.06146334	      0.89886060	      0.91751420	      0.43277413	     25.43519385	     -5.64288148	     -5.68069019	     65.98451765	     65.98451765	     10.20137122	    -19.59240606	     21.45200527	     15.09293670	     -1.43838527	     -3.02843916	     32.61146795	     32.61146795	     21.05830169	    -18.32431015	      7.67259447	    -11.56225924	      4.87422299	      2.81794444	     13.52919094	    -12.17737392	     -2.22064101	     29.96671593	     46.28366481	      0.00000000	      0.00000000	     19.20943820	    -12.84263010	     12.24399777	     34.77086599	     45.08087447	      0.00000000	      0.00000000
      6.36000000	     -0.51498986	     -4.25593169	     -3.58472152	      0.89859440	      0.91760527	      0.43265824	     26.18140477	     -4.91666017	     -5.21177609	     64.36641663	     64.36641663	     11.15237925	    -19.55214357	     20.97195764	     14.53355590	     -1.70849096	     -3.39470882	     32.61698129	     32.61698129	     21.50898532	    -18.32837067	      8.04014341	    -11.74543953	      5.41363679	      3.05437620	     10.44867329	    -12.51240567	     -2.23067765	     28.06174309	     46.33910116	      0.00000000	      0.00000000	     20.29704919	    -13.12268421	     11.48747343	     36.68838199	     45.20811348	      0.00000000	      0.00000000
      6.38000000	     -0.57907174	     -4.44510679	     -4.11328259	      0.89827939	      0.91819909	      0.43295621	     26.85614434	     -4.22265331	     -4.85959643	     62.08520454	     62.08520454	     11.84877926	    -19.48670978	     20.06757555	     13.91261102	     -1.95346743	     -3.80500181	     32.24371487	     32.24371487	     21.85593128	    -18.27218525	      8.32407925	    -11.84671659	      5.81402519	      2.90326686	      7.49783711	    -12.66582863	     -2.39734210	     26.58256434	     46.39014186	      0.00000000	      0.00000000	     21.08984529	    -13.66202733	     10.41540175	     38.87180659	     45.36800768	      0.00000000	      0.00000000
      6.40000000	     -0.73883310	     -4.67939655	     -4.62149962	      0.89796706	      0.91931249	      0.43359390	     27.30925272	     -3.48572785	     -4.67738034	     59.02755154	     59.02755154	     11.83837161	    -19.39443430	     17.28673101	     13.22223034	     -2.26690496	     -4.23869789	     31.54037256	     31.54037256	     21.90046642	    -18.18758573	      8.35762638	    -11.89182622	      6.25775270	      2.17471305	      4.84431678	    -12.68124742	     -3.26526524	     25.72466378	     46.47748533	      0.00000000	      0.00000000	     20.91691658	    -14.46298849	      7.70843556	     42.68507520	     45.72687765	      0.00000000	      0.00000000
      6.42000000	     -0.94005606	     -4.94323653	     -5.13452128	      0.89750136	      0.92097513	      0.43471449	     27.64055249	     -2.57716604	     -4.40273378	     55.50801810	     55.50801810	     12.22891801	    -19.19702029	     16.66577923	     12.40541164	     -2.63040120	     -4.68615635	     30.50242818	     30.50242818	     21.84228524	    -18.01735075	      8.45370310	    -11.87972297	      6.68410169	      2.11026776	      2.02886441	    -12.97224710	     -3.41217384	     24.63998455	     46.51151968	      0.00000000	      0.00000000	     21.99437794	    -14.96010652	      7.02220514	     43.99507763	     45.82508143	      0.00000000	      0.00000000
      6.44000000	     -1.27620154	     -5.07329363	     -5.72409920	      0.89707366	      0.92260744	      0.43617825	     27.78788243	     -1.87911049	     -4.25644334	     51.28628342	     51.28628342	     11.08854245	    -18.86209037	     11.71179153	     11.58461790	     -2.90846641	     -5.37627028	     29.17324918	     29.17324918	     21.35314644	    -17.79605126	      7.49736147	    -11.81503298	      6.92770161	      2.26306486	     -1.22512175	    -13.18689818	     -4.58330063	     24.82035958	     46.57398233	      0.00000000	      0.00000000	     22.28890783	    -15.35170034	      4.65741364	     47.93729227	     46.12030301	      0.00000000	      0.00000000
      6.46000000	     -1.51905166	     -5.29732658	     -6.24300300	      0.89667010	      0.92464536	      0.43792700	     27.43508267	     -1.15729039	     -4.37428049	     46.36470328	     46.36470328	      9.04807660	    -18.36922201	      4.96138691	     10.55343776	     -3.25253138	     -5.97667029	     27.64171539	     27.64171539	     20.70223318	    -17.62292389	      6.50106817	    -11.83333383	      7.25708827	      1.73228809	     -3.61340786	    -13.15046127	     -6.56603086	     24.59700607	     46.72206090	      0.00000000	      0.00000000	     22.76327135	    -16.05045053	      2.33195705	     50.31002058	     46.41670820	      0.00000000	      0.00000000
      6.48000000	     -1.79514761	     -5.45902834	     -6.81510631	      0.89621274	      0.92658343	      0.44014120	     27.13165120	     -0.39642195	     -4.31518623	     41.64776234	     41.64776234	      8.84311958	    -16.66134894	      4.20769183	      9.51888792	     -3.54307161	     -6.65901462	     26.07928028	     26.07928028	     20.47154854	    -17.19108219	      6.49346440	    -11.83608893	      7.45433786	      1.87463640	     -6.12767838	    -13.29887911	     -6.93230203	     24.20068517	     46.74349654	      0.00000000	      0.00000000	     23.86036346	    -16.71702357	      1.65070449	     52.20832564	     46.51342970	      0.00000000	      0.00000000
